<svg width="13" height="18" viewBox="0 0 13 18" fill="none" xmlns="http://www.w3.org/2000/svg">
<path fill-rule="evenodd" clip-rule="evenodd" d="M0.241325 7.86931C-0.112239 8.29359 -0.0549151 8.92415 0.369362 9.27772C0.793639 9.63128 1.4242 9.57396 1.77777 9.14968L5.00952 5.27158L5.00952 16.5095C5.00952 17.0618 5.45724 17.5095 6.00952 17.5095C6.56181 17.5095 7.00952 17.0618 7.00952 16.5095L7.00952 5.08027L10.7724 9.18522C11.1456 9.59234 11.7782 9.61984 12.1853 9.24665C12.5924 8.87346 12.6199 8.24089 12.2467 7.83377L5.97368 0.990482L5.24585 1.86388C5.24256 1.86777 5.2393 1.87168 5.23607 1.87562L0.241325 7.86931Z" fill="#666666"/>
</svg>
