<svg width="447" height="738" viewBox="0 0 447 738" fill="none" xmlns="http://www.w3.org/2000/svg">
<path d="M444.246 494.004C438.76 458.341 422.037 426.858 416.871 417.044C411.707 407.23 404.992 387.603 406.877 360.022C408.764 332.441 396.211 252.794 332.164 201.664C268.117 150.53 208.933 134.625 200.973 129.354C192.344 123.644 157.587 107.66 149.382 103.838C141.176 100.015 108.002 95.7804 93.1207 93.882C78.2398 91.9836 62.5495 97.3291 56.5289 97.3768C50.5084 97.4235 16.5799 86.9999 11.4153 86.9999C6.25075 86.9999 9.34928 92.1645 9.86552 95.2642C10.3829 98.3627 21.2749 118.629 21.2749 118.629C21.2749 118.629 9.34929 118.507 8.83306 121.089C8.31682 123.672 23.0091 134.716 23.0091 134.716C23.0091 134.716 16.0637 157.245 15.7029 162.331C15.341 167.417 22.2619 184.62 23.2955 189.268C24.3279 193.917 23.2955 204.764 23.2955 204.764L28.4267 210C28.4267 210 37.2405 216.127 39.3066 217.159C41.3727 218.193 48.3346 217.02 48.3346 217.02C53.7468 218.945 71.33 209.411 80.6278 203.731C89.9245 198.049 102.837 196.5 106.563 196.471C110.288 196.444 113.684 208.38 113.528 212.281C113.372 216.185 116.783 230.589 117.816 235.238C118.849 239.886 113.006 249.146 113.006 249.146C107.68 246.527 100.255 244.018 95.6064 242.468C90.957 240.919 76.4957 230.589 72.3635 229.556C68.2314 228.522 64.6155 228.006 57.2816 225.985C49.9477 223.964 25.8778 218.709 20.7098 219.38C15.543 220.049 2.11865 227.491 0.225782 235.088C-1.66598 242.687 8.83304 250.216 12.9652 251.766C17.0973 253.315 30.0099 250.216 34.555 250.686C39.1012 251.156 42.0043 254.895 42.0043 254.895C58.1309 255.44 65.6491 265.195 74.9458 273.459C84.2425 281.723 128.146 305.999 134.344 307.032C140.542 308.066 157.584 303.723 157.584 303.723C157.584 303.723 162.752 324.593 164.818 336.989C166.884 349.385 158.103 389.674 157.071 397.421C156.037 405.169 155.78 414.981 153.842 417.565C152.263 419.672 150.614 419.243 142.043 420.538C131.78 422.088 120.496 437.205 120.915 443.906C121.432 452.171 130.392 454.638 134.39 454.638H148.548C154.746 454.638 172.307 452.171 172.307 452.171L200.199 454.638H368.637C385.452 454.638 402.132 488.92 404.993 514.667C408.092 542.559 388.708 615.315 376.585 641.218C365.222 665.493 340.144 692.805 316.154 698.033C275.866 706.813 248.491 680.472 228.347 684.086C210.018 687.377 213.885 707.846 222.149 716.111C229.775 723.737 295.546 746.449 338.874 732.638C385.876 717.66 413.956 662.773 429.263 618.489C443.748 576.621 450.462 534.269 444.264 493.981L444.246 494.004ZM223.526 416.897C213.713 420.511 205.448 426.193 199.25 424.645C193.052 423.095 190.47 427.743 185.304 426.193C185.304 426.193 190.47 410.698 195.625 401.852C200.78 393.005 207.746 364.193 207.746 364.193C209.529 375.02 219.911 392.104 227.658 402.434C235.406 412.764 233.34 413.282 223.526 416.897Z" fill="#503C3C"/>
<path d="M69.4125 15.7329C39.5476 34.0258 36.0953 79.945 37.2508 82.3919L130.865 82.0736C124.612 58.6927 127.513 45.6851 129.746 42.1039C135.491 30.6127 156.804 28.9933 166.743 29.62L167.006 17.9249C128.892 -9.72226 86.063 4.94395 69.4125 15.7329Z" fill="#C11010"/>
<path d="M30.986 109.824C17.3268 85.6307 32.2845 75.9604 41.4708 74.1493C45.8533 65.8552 54.1475 66.6333 57.7468 68.0592C62.7311 61.7153 71.1576 63.7875 74.7478 65.6167C80.0185 60.8933 87.1784 63.0714 90.0996 64.7509C96.3018 61.6623 101.269 64.4638 102.977 66.2507C109.48 64.1373 114.248 67.4453 115.819 69.3635C122.286 68.8631 125.186 71.4568 125.828 72.8161C149.293 77.2165 145.547 99.0818 140.741 109.464C134.687 120.303 123.969 113.66 119.367 108.984C110.493 101.684 91.5998 99.753 83.2624 99.7003C63.2309 100.541 49.1878 107.812 44.6703 111.341C38.4173 116.688 32.942 112.557 30.986 109.824Z" fill="white"/>
<path d="M157.197 23.4957C154.754 17.3079 160.399 12.6737 163.527 11.13C164.984 3.7387 173.366 4.22283 177.374 5.3888C185.204 1.69125 189.956 8.09227 191.353 11.755C197.432 14.151 197.445 21.9788 196.691 25.5932C198.108 34.3402 193.336 37.2188 190.773 37.5647C188.685 44.2963 181.197 44.7468 177.714 44.1306C168.638 45.8634 164.075 40.5964 162.929 37.7463C156.527 35.343 156.44 27.2446 157.197 23.4957Z" fill="white"/>
<path d="M61.5 105.5C54.3 98.7 34.1667 92.3333 25 90L27.5 113L41 118L61.5 105.5Z" fill="#503C3C"/>
</svg>
