<svg width="447" height="732" viewBox="0 0 447 732" fill="none" xmlns="http://www.w3.org/2000/svg">
<path d="M444.246 488.004C438.76 452.341 422.037 420.858 416.871 411.044C411.707 401.23 404.992 381.603 406.877 354.022C408.764 326.442 396.211 246.794 332.164 195.665C268.117 144.531 208.933 128.625 200.973 123.354C192.344 117.644 157.587 101.661 149.382 97.8383C141.176 94.0148 108.002 89.7806 93.1207 87.8822C78.2398 85.9838 62.5495 91.3294 56.5289 91.3771C50.5084 91.4237 16.5799 81.0001 11.4153 81.0001C6.25075 81.0001 9.34928 86.1648 9.86552 89.2644C10.3829 92.3629 21.2749 112.629 21.2749 112.629C21.2749 112.629 9.34929 112.507 8.83306 115.09C8.31682 117.672 23.0091 128.716 23.0091 128.716C23.0091 128.716 16.0637 151.245 15.7029 156.331C15.341 161.418 22.2619 178.62 23.2955 183.268C24.3279 187.917 23.2955 198.764 23.2955 198.764L28.4267 204C28.4267 204 37.2405 210.127 39.3066 211.16C41.3727 212.193 48.3346 211.02 48.3346 211.02C53.7468 212.945 71.33 203.412 80.6278 197.731C89.9245 192.049 102.837 190.5 106.563 190.471C110.288 190.445 113.684 202.38 113.528 206.281C113.372 210.185 116.783 224.59 117.816 229.238C118.849 233.886 113.006 243.146 113.006 243.146C107.68 240.527 100.255 238.018 95.6064 236.469C90.957 234.919 76.4957 224.59 72.3635 223.556C68.2314 222.522 64.6155 222.006 57.2816 219.986C49.9477 217.964 25.8778 212.709 20.7098 213.38C15.543 214.049 2.11865 221.491 0.225782 229.088C-1.66598 236.687 8.83304 244.217 12.9652 245.766C17.0973 247.315 30.0099 244.217 34.555 244.686C39.1012 245.156 42.0043 248.895 42.0043 248.895C58.1309 249.44 65.6491 259.195 74.9458 267.459C84.2425 275.724 128.146 299.999 134.344 301.033C140.542 302.066 157.584 297.723 157.584 297.723C157.584 297.723 162.752 318.594 164.818 330.989C166.884 343.385 158.103 383.674 157.071 391.421C156.037 399.169 155.78 408.982 153.842 411.565C152.263 413.672 150.614 413.244 142.043 414.538C131.78 416.088 120.496 431.205 120.915 437.907C121.432 446.171 130.392 448.639 134.39 448.639H148.548C154.746 448.639 172.307 446.171 172.307 446.171L200.199 448.639H368.637C385.452 448.639 402.132 482.92 404.993 508.668C408.092 536.559 388.708 609.315 376.585 635.218C365.222 659.493 340.144 686.805 316.154 692.033C275.866 700.813 248.491 674.472 228.347 678.087C210.018 681.377 213.885 701.846 222.149 710.111C229.775 717.737 295.546 740.449 338.874 726.639C385.876 711.66 413.956 656.773 429.263 612.489C443.748 570.622 450.462 528.269 444.264 487.982L444.246 488.004ZM223.526 410.897C213.713 414.512 205.448 420.193 199.25 418.645C193.052 417.095 190.47 421.743 185.304 420.193C185.304 420.193 190.47 404.699 195.625 395.853C200.78 387.006 207.746 358.193 207.746 358.193C209.529 369.021 219.911 386.104 227.658 396.434C235.406 406.765 233.34 407.282 223.526 410.897Z" fill="#503C3C"/>
<path d="M62.2029 14.789C32.7563 33.7478 30.336 79.733 31.5461 82.1533L125.13 79.7331C118.353 56.4985 120.962 43.429 123.113 39.7986C128.599 28.1813 149.871 26.0837 159.821 26.4871V14.789C121.096 -11.9953 78.607 3.62888 62.2029 14.789Z" fill="#C11010"/>
<path d="M25.8988 109.719C11.6999 85.8389 26.4367 75.8351 35.5799 73.8182C39.775 65.4278 48.0847 66.0195 51.7151 67.3641C56.5556 60.9099 65.0266 62.7924 68.657 64.5405C73.8202 59.6999 81.0273 61.7168 83.9854 63.3302C90.1167 60.1031 95.1455 62.7924 96.8935 64.5405C103.348 62.2816 108.188 65.4817 109.802 67.3641C116.256 66.7187 119.214 69.2466 119.886 70.5912C143.443 74.4636 140.19 96.4074 135.618 106.895C129.809 117.867 118.945 111.467 114.239 106.895C105.203 99.7958 86.2712 98.2898 77.9347 98.4243C57.9271 99.7151 44.0509 107.299 39.6137 110.929C33.4823 116.415 27.9157 112.408 25.8988 109.719Z" fill="white"/>
<path d="M150.139 20.5785C147.558 14.4472 153.098 9.6873 156.19 8.07378C157.481 0.651628 165.871 0.94743 169.905 2.0231C177.65 -1.84934 182.544 4.44337 184.023 8.07378C190.155 10.3327 190.343 18.1583 189.671 21.7887C191.284 30.5016 186.578 33.4867 184.023 33.89C182.087 40.6668 174.611 41.2853 171.115 40.7475C162.079 42.6837 157.4 37.5204 156.19 34.6968C149.736 32.4379 149.467 24.3434 150.139 20.5785Z" fill="white"/>
</svg>
