<svg width="4427" height="931" viewBox="0 0 4427 931" fill="none" xmlns="http://www.w3.org/2000/svg">
<path fill-rule="evenodd" clip-rule="evenodd" d="M4416.04 465.539C4420.01 465.764 4423.67 465.753 4427 465.539H4416.04ZM4003 930.979C4129.09 932.904 4173.67 798.939 4197.68 704.83C4244.79 520.109 4358.41 469.381 4414.8 465.539H4416.04C4415.83 465.527 4415.61 465.514 4415.39 465.5C4415.61 465.486 4415.83 465.473 4416.04 465.461H4427C4423.67 465.247 4420.01 465.236 4416.04 465.461H4414.8C4358.41 461.619 4244.79 410.891 4197.68 226.17C4173.67 132.061 4129.09 -1.90406 4003 0.0205055V6.9158e-09H672V1.90777C595.156 153.27 360.896 451.348 21.1058 471.269C13.6149 471.315 6.5677 471.616 0 472.142C7.07964 471.971 14.1151 471.679 21.1058 471.269C161.092 470.415 456.021 558.635 672 929.343V931H672.964H4003V930.979Z" fill="#1F3D4D"/>
</svg>
