<svg width="564" height="564" viewBox="0 0 564 564" fill="none" xmlns="http://www.w3.org/2000/svg">
<g opacity="0.4">
<g clip-path="url(#clip0_637_2)">
<path d="M475.487 330.145C471.452 337.305 463.642 343.034 455.442 349.153C447.111 355.272 438.52 361.652 433.965 369.724C429.409 377.666 428.107 388.342 427.066 398.627C425.895 408.782 424.853 418.417 420.688 425.577C419.516 427.66 418.085 429.353 416.523 430.785C408.453 438.076 395.176 438.076 382.29 438.206C372.267 438.206 361.724 438.336 353.784 441.852C345.714 445.367 338.555 453.179 331.786 460.6C323.195 469.974 314.344 479.608 303.671 480.78C293.127 481.821 282.454 474.27 272.041 466.849C263.71 460.86 254.989 454.741 246.138 452.788C237.808 450.965 227.655 453.048 217.893 455.001C205.136 457.605 191.99 460.209 182.358 454.611C172.595 449.012 168.3 436.253 164.265 423.885C161.141 414.381 157.757 404.746 152.03 398.367C145.912 391.597 136.28 387.17 127.038 382.873C115.454 377.535 103.478 372.067 99.183 362.303C94.7575 352.538 98.6624 339.909 102.437 327.801C105.431 318.167 108.555 308.142 107.644 299.288C106.733 290.565 101.526 281.452 96.4496 272.729C90.0715 261.532 83.4332 249.945 85.646 239.269C86.0365 237.185 86.9476 235.102 88.1191 233.019C92.1542 225.859 99.964 220.13 108.164 214.011C116.495 207.892 125.086 201.512 129.641 193.44C134.197 185.498 135.499 174.822 136.54 164.537C137.712 154.382 138.753 144.747 142.918 137.586C144.09 135.503 145.521 133.811 147.083 132.379C155.154 125.088 168.43 125.088 181.316 124.958C191.339 124.958 201.882 124.827 209.822 121.312C217.893 117.797 225.052 109.985 231.82 102.564C240.411 93.19 249.262 83.5556 259.935 82.3838C270.479 81.3423 281.152 88.8936 291.565 96.3147C299.896 102.304 308.617 108.423 317.468 110.376C325.798 112.198 335.951 110.115 345.714 108.162C358.47 105.559 371.616 102.955 381.248 108.553C390.88 114.151 395.176 126.78 399.341 139.149C402.465 148.523 405.849 158.287 411.576 164.667C417.694 171.437 427.326 175.864 436.568 180.16C448.153 185.498 460.128 190.966 464.423 200.731C468.849 210.496 464.944 223.124 461.169 235.233C458.175 244.867 455.051 254.892 455.962 263.745C456.874 272.468 462.08 281.582 467.157 290.305C473.535 301.502 480.173 313.089 477.96 323.765C477.57 325.978 476.789 328.061 475.487 330.145Z" stroke="#294652"/>
</g>
<g clip-path="url(#clip1_637_2)">
<path d="M458.793 189.285C460.524 197.32 458.481 206.787 456.404 216.806C454.23 226.912 452.035 237.384 453.981 246.447C455.841 255.412 461.95 264.263 467.994 272.65C473.854 281.026 479.467 288.926 481.101 297.047C481.606 299.383 481.658 301.599 481.439 303.707C480.237 314.516 470.303 323.324 460.747 331.971C453.248 338.62 445.445 345.712 441.836 353.61C438.13 361.594 437.955 372.188 437.814 382.232C437.605 394.945 437.374 408.026 430.165 415.984C422.967 423.758 409.97 425.188 397.256 426.544C387.049 427.589 376.464 428.796 368.546 433.207C361.103 437.369 354.888 445.664 348.879 453.601C341.062 464.012 332.952 474.682 322.031 476.883C311.012 479.171 299.334 472.473 288.109 465.896C279.466 460.857 270.542 455.893 262.025 454.919C252.956 453.912 242.812 456.99 233.046 459.906C220.837 463.597 208.249 467.45 198.557 462.993C188.767 458.623 183.311 446.583 178.103 435.018C173.951 425.823 169.638 416.25 163.083 410.23C156.614 404.307 146.672 400.942 137.087 397.783C124.886 393.636 112.232 389.37 106.805 379.913C105.715 378.096 105.015 375.933 104.51 373.597C102.778 365.562 104.822 356.094 106.898 346.075C109.072 335.97 111.268 325.497 109.321 316.435C107.461 307.47 101.353 298.618 95.3084 290.231C89.4478 281.856 83.8353 273.956 82.2015 265.834C81.696 263.499 81.6445 261.282 81.8632 259.174C83.0648 248.365 92.9991 239.557 102.555 230.911C110.054 224.262 117.857 217.17 121.466 209.272C125.172 201.288 125.347 190.693 125.488 180.65C125.697 167.937 125.929 154.856 133.138 146.898C140.336 139.124 153.332 137.693 166.047 136.338C176.253 135.293 186.838 134.086 194.757 129.675C202.199 125.512 208.414 117.218 214.423 109.28C222.24 98.8693 230.35 88.1993 241.271 85.9982C252.192 83.7971 263.785 90.397 275.107 96.8885C283.663 101.83 292.673 106.891 301.191 107.865C310.26 108.873 320.404 105.795 330.169 102.878C342.379 99.1871 354.967 95.3343 364.659 99.791C374.448 104.161 379.905 116.202 385.113 127.766C389.265 136.961 393.578 146.534 400.133 152.554C406.602 158.477 416.544 161.842 426.129 165.001C438.33 169.148 450.984 173.414 456.411 182.871C457.587 184.786 458.385 186.863 458.793 189.285Z" stroke="#294652"/>
</g>
<g clip-path="url(#clip2_637_2)">
<path d="M445.221 166.955C447.986 174.696 447.195 184.349 446.443 194.553C445.606 204.856 444.795 215.525 447.907 224.256C450.921 232.902 458.132 240.881 465.219 248.408C472.122 255.948 478.717 263.048 481.396 270.887C482.202 273.137 482.542 275.328 482.6 277.446C482.819 288.32 474.118 298.348 465.772 308.167C459.204 315.738 452.393 323.787 449.845 332.088C447.212 340.488 448.421 351.014 449.591 360.99C451.042 373.622 452.519 386.621 446.41 395.452C440.287 404.098 427.589 407.212 415.16 410.214C405.177 412.582 394.84 415.159 387.564 420.565C380.728 425.663 375.648 434.697 370.726 443.351C364.334 454.693 357.685 466.33 347.144 469.937C336.518 473.642 324.066 468.525 312.079 463.468C302.853 459.599 293.358 455.842 284.786 455.987C275.663 456.172 266.007 460.547 256.705 464.712C245.082 469.964 233.104 475.426 222.913 472.272C212.637 469.216 205.657 457.99 198.985 447.204C193.669 438.629 188.144 429.7 180.86 424.587C173.674 419.558 163.378 417.519 153.462 415.637C140.825 413.117 127.722 410.538 121.108 401.871C119.79 400.211 118.814 398.157 118.008 395.907C115.244 388.167 116.035 378.514 116.786 368.309C117.623 358.007 118.434 347.337 115.322 338.606C112.309 329.961 105.098 321.981 98.0109 314.454C91.1079 306.915 84.5129 299.815 81.8336 291.976C81.0278 289.726 80.6876 287.535 80.6294 285.417C80.4107 274.543 89.1112 264.514 97.4574 254.695C104.025 247.125 110.836 239.076 113.384 230.775C116.017 222.375 114.808 211.848 113.638 201.873C112.187 189.24 110.71 176.241 116.82 167.411C122.942 158.765 135.64 155.651 148.07 152.648C158.053 150.281 168.39 147.703 175.665 142.297C182.501 137.199 187.581 128.165 192.503 119.511C198.896 108.17 205.544 96.5331 216.085 92.9261C226.626 89.3192 238.98 94.3505 251.052 99.3096C260.18 103.093 269.774 106.936 278.345 106.79C287.468 106.606 297.124 102.231 306.426 98.0656C318.049 92.8132 330.027 87.3512 340.218 90.5056C350.494 93.5616 357.474 104.787 364.146 115.573C369.462 124.148 374.987 133.077 382.271 138.191C389.458 143.219 399.754 145.258 409.669 147.14C422.306 149.66 435.409 152.239 442.023 160.907C443.439 162.652 444.501 164.607 445.221 166.955Z" stroke="#294652"/>
</g>
<g clip-path="url(#clip3_637_2)">
<path d="M429.597 147.399C433.307 154.734 433.729 164.41 434.258 174.628C434.715 184.954 435.244 195.642 439.423 203.916C443.493 212.117 451.645 219.132 459.617 225.715C467.408 232.332 474.838 238.553 478.476 245.995C479.557 248.127 480.168 250.258 480.491 252.352C482.067 263.113 474.688 274.151 467.634 284.936C462.064 293.268 456.312 302.105 454.821 310.66C453.259 319.322 455.774 329.615 458.181 339.367C461.2 351.719 464.29 364.431 459.332 373.956C454.338 383.3 442.128 387.976 430.171 392.508C420.562 396.105 410.628 399.954 404.086 406.227C397.94 412.139 394.029 421.737 390.227 430.938C385.302 442.99 380.16 455.366 370.153 460.262C360.073 465.266 347.079 461.746 334.554 458.226C324.917 455.541 315.026 453 306.54 454.215C297.511 455.538 288.478 461.086 279.77 466.381C268.894 473.044 257.692 479.96 247.188 478.104C236.61 476.356 228.282 466.091 220.314 456.224C213.968 448.38 207.371 440.212 199.504 436.049C191.746 431.958 181.276 431.221 171.203 430.593C158.35 429.672 145.028 428.751 137.382 420.978C135.868 419.496 134.642 417.58 133.561 415.449C129.851 408.114 129.429 398.438 128.9 388.22C128.443 377.894 127.914 367.206 123.736 358.933C119.665 350.731 111.513 343.716 103.542 337.134C95.7504 330.516 88.3198 324.295 84.6819 316.853C83.6012 314.721 82.9899 312.59 82.6675 310.496C81.0916 299.735 88.4705 288.697 95.5242 277.912C101.095 269.58 106.846 260.743 108.337 252.189C109.9 243.526 107.384 233.233 104.977 223.481C101.959 211.13 98.8686 198.417 103.827 188.892C108.82 179.549 121.03 174.872 132.987 170.34C142.596 166.743 152.53 162.894 159.073 156.621C165.218 150.709 169.129 141.111 172.931 131.91C177.856 119.858 182.998 107.482 193.005 102.586C203.013 97.6901 215.899 101.138 228.496 104.55C238.025 107.163 248.024 109.776 256.51 108.561C265.539 107.237 274.572 101.69 283.28 96.3952C294.156 89.7314 305.357 82.8153 315.862 84.6714C326.44 86.4193 334.768 96.6845 342.736 106.552C349.081 114.395 355.679 122.564 363.546 126.727C371.304 130.818 381.774 131.555 391.847 132.183C404.7 133.103 418.022 134.025 425.668 141.798C427.291 143.353 428.588 145.16 429.597 147.399Z" stroke="#294652"/>
</g>
<g clip-path="url(#clip4_637_2)">
<path d="M409.137 127.83C413.846 134.566 415.631 144.086 417.599 154.127C419.51 164.285 421.543 174.79 426.849 182.391C432.037 189.935 441.098 195.728 449.92 201.118C458.568 206.569 466.803 211.677 471.456 218.531C472.827 220.489 473.733 222.512 474.348 224.54C477.428 234.97 471.682 246.939 466.223 258.613C461.886 267.648 457.44 277.209 457.173 285.889C456.85 294.685 460.794 304.52 464.555 313.833C469.288 325.635 474.143 337.784 470.58 347.913C466.956 357.868 455.53 364.223 444.333 370.399C435.329 375.317 426.038 380.531 420.447 387.665C415.199 394.386 412.683 404.44 410.219 414.086C407.046 426.713 403.704 439.691 394.489 445.952C385.217 452.33 371.856 450.681 358.959 448.966C349.039 447.669 338.889 446.551 330.659 448.953C321.908 451.538 313.749 458.306 305.877 464.778C296.051 472.911 285.939 481.341 275.277 480.987C264.559 480.751 254.864 471.766 245.582 463.123C238.192 456.254 230.507 449.1 222.131 446.09C213.873 443.136 203.404 443.886 193.343 444.687C180.489 445.591 167.17 446.561 158.503 439.946C156.794 438.693 155.31 436.97 153.939 435.012C149.23 428.276 147.446 418.756 145.478 408.715C143.567 398.557 141.533 388.052 136.228 380.451C131.04 372.907 121.978 367.114 113.157 361.724C104.509 356.273 96.2738 351.165 91.6209 344.311C90.2499 342.353 89.3437 340.33 88.7286 338.302C85.6483 327.871 91.394 315.902 96.8533 304.229C101.191 295.194 105.636 285.632 105.903 276.953C106.227 268.157 102.282 258.322 98.5215 249.009C93.7885 237.207 88.9335 225.058 92.4962 214.929C96.12 204.973 107.547 198.619 118.743 192.443C127.747 187.525 137.038 182.311 142.629 175.177C147.877 168.456 150.393 158.401 152.857 148.756C156.03 136.129 159.372 123.15 168.588 116.89C177.803 110.629 191.047 112.222 204 113.82C213.803 115.06 224.07 116.235 232.3 113.833C241.051 111.247 249.21 104.48 257.082 98.0075C266.908 89.874 277.02 81.4448 287.682 81.7982C298.4 82.0343 308.095 91.02 317.377 99.6629C324.767 106.531 332.453 113.686 340.828 116.696C349.086 119.649 359.556 118.9 369.616 118.098C382.47 117.194 395.789 116.224 404.456 122.839C406.283 124.149 407.823 125.755 409.137 127.83Z" stroke="#294652"/>
<path d="M262.851 266L258.111 280H257.031L252.691 267.44L248.331 280H247.251L242.491 266H243.571L247.831 278.6L252.211 266H253.191L257.551 278.62L261.851 266H262.851Z" fill="#1F3D4D"/>
<path d="M281.192 266V280H280.172V273.34H270.812V280H269.792V266H270.812V272.44H280.172V266H281.192Z" fill="#1F3D4D"/>
<path d="M298.741 276.06H290.621L288.841 280H287.741L294.181 266H295.201L301.641 280H300.541L298.741 276.06ZM298.361 275.2L294.681 267.12L291.021 275.2H298.361Z" fill="#1F3D4D"/>
<path d="M310.159 266.92H305.119V266H316.219V266.92H311.179V280H310.159V266.92Z" fill="#1F3D4D"/>
<path d="M228.465 306.1C227.092 306.1 225.852 305.793 224.745 305.18C223.652 304.567 222.785 303.72 222.145 302.64C221.519 301.56 221.205 300.347 221.205 299C221.205 297.653 221.519 296.44 222.145 295.36C222.785 294.28 223.652 293.433 224.745 292.82C225.852 292.207 227.092 291.9 228.465 291.9C229.479 291.9 230.412 292.067 231.265 292.4C232.119 292.72 232.845 293.2 233.445 293.84L232.805 294.5C231.685 293.393 230.252 292.84 228.505 292.84C227.332 292.84 226.265 293.107 225.305 293.64C224.345 294.173 223.592 294.913 223.045 295.86C222.499 296.793 222.225 297.84 222.225 299C222.225 300.16 222.499 301.213 223.045 302.16C223.592 303.093 224.345 303.827 225.305 304.36C226.265 304.893 227.332 305.16 228.505 305.16C230.239 305.16 231.672 304.6 232.805 303.48L233.445 304.14C232.845 304.78 232.112 305.267 231.245 305.6C230.392 305.933 229.465 306.1 228.465 306.1Z" fill="#1F3D4D"/>
<path d="M249.151 302.06H241.031L239.251 306H238.151L244.591 292H245.611L252.051 306H250.951L249.151 302.06ZM248.771 301.2L245.091 293.12L241.431 301.2H248.771Z" fill="#1F3D4D"/>
<path d="M269.992 292V306H269.152L259.612 293.84V306H258.592V292H259.452L268.972 304.16V292H269.992Z" fill="#1F3D4D"/>
<path d="M288.018 292H289.038V306H288.018V292Z" fill="#1F3D4D"/>
<path d="M307.053 292H312.593C314.047 292 315.333 292.3 316.453 292.9C317.587 293.5 318.467 294.333 319.093 295.4C319.72 296.453 320.033 297.653 320.033 299C320.033 300.347 319.72 301.553 319.093 302.62C318.467 303.673 317.587 304.5 316.453 305.1C315.333 305.7 314.047 306 312.593 306H307.053V292ZM312.513 305.08C313.807 305.08 314.947 304.827 315.933 304.32C316.92 303.8 317.68 303.08 318.213 302.16C318.747 301.24 319.013 300.187 319.013 299C319.013 297.813 318.747 296.76 318.213 295.84C317.68 294.92 316.92 294.207 315.933 293.7C314.947 293.18 313.807 292.92 312.513 292.92H308.073V305.08H312.513Z" fill="#1F3D4D"/>
<path d="M333.517 306.1C332.143 306.1 330.903 305.793 329.797 305.18C328.69 304.553 327.817 303.7 327.177 302.62C326.55 301.54 326.237 300.333 326.237 299C326.237 297.667 326.55 296.46 327.177 295.38C327.817 294.3 328.69 293.453 329.797 292.84C330.903 292.213 332.143 291.9 333.517 291.9C334.89 291.9 336.13 292.207 337.237 292.82C338.343 293.433 339.21 294.28 339.837 295.36C340.477 296.44 340.797 297.653 340.797 299C340.797 300.347 340.477 301.56 339.837 302.64C339.21 303.72 338.343 304.567 337.237 305.18C336.13 305.793 334.89 306.1 333.517 306.1ZM333.517 305.16C334.69 305.16 335.75 304.893 336.697 304.36C337.643 303.827 338.39 303.093 338.937 302.16C339.483 301.213 339.757 300.16 339.757 299C339.757 297.84 339.483 296.793 338.937 295.86C338.39 294.913 337.643 294.173 336.697 293.64C335.75 293.107 334.69 292.84 333.517 292.84C332.343 292.84 331.277 293.107 330.317 293.64C329.37 294.173 328.623 294.913 328.077 295.86C327.53 296.793 327.257 297.84 327.257 299C327.257 300.16 327.53 301.213 328.077 302.16C328.623 303.093 329.37 303.827 330.317 304.36C331.277 304.893 332.343 305.16 333.517 305.16Z" fill="#1F3D4D"/>
</g>
</g>
<defs>
<clipPath id="clip0_637_2">
<rect width="397" height="401" fill="white" transform="translate(83.0427 81.2129)"/>
</clipPath>
<clipPath id="clip1_637_2">
<rect width="397" height="401" fill="white" transform="translate(0 263.375) rotate(-41.5609)"/>
</clipPath>
<clipPath id="clip2_637_2">
<rect width="397" height="401" fill="white" transform="translate(0.0135803 300.26) rotate(-49.0563)"/>
</clipPath>
<clipPath id="clip3_637_2">
<rect width="397" height="401" fill="white" transform="translate(4.5386 335.297) rotate(-56.2354)"/>
</clipPath>
<clipPath id="clip4_637_2">
<rect width="397" height="401" fill="white" transform="translate(14.8871 373.893) rotate(-64.3569)"/>
</clipPath>
</defs>
</svg>
