<svg width="564" height="564" viewBox="0 0 564 564" fill="none" xmlns="http://www.w3.org/2000/svg">
<g opacity="0.4">
<path d="M476.012 330.422C471.976 337.583 464.167 343.312 455.966 349.431C447.636 355.55 439.045 361.93 434.489 370.002C429.934 377.943 428.632 388.619 427.591 398.905C426.419 409.06 425.378 418.694 421.213 425.855C420.041 427.938 418.609 429.631 417.047 431.063C408.977 438.354 395.7 438.354 382.814 438.484C372.792 438.484 362.248 438.614 354.308 442.13C346.238 445.645 339.079 453.456 332.311 460.878C323.72 470.252 314.869 479.886 304.195 481.058C293.652 482.099 282.978 474.548 272.565 467.127C264.235 461.138 255.514 455.019 246.663 453.066C238.332 451.243 228.179 453.326 218.417 455.279C205.661 457.883 192.514 460.487 182.882 454.889C173.12 449.29 168.825 436.531 164.79 424.163C161.666 414.658 158.281 405.024 152.554 398.644C146.436 391.874 136.804 387.448 127.563 383.151C115.978 377.813 104.003 372.345 99.7076 362.58C95.282 352.816 99.1869 340.187 102.962 328.079C105.955 318.444 109.079 308.419 108.168 299.566C107.257 290.843 102.051 281.73 96.9741 273.006C90.5961 261.81 83.9577 250.222 86.1705 239.546C86.561 237.463 87.4722 235.38 88.6436 233.297C92.6787 226.136 100.489 220.408 108.689 214.289C117.019 208.169 125.61 201.79 130.166 193.718C134.722 185.776 136.023 175.1 137.065 164.815C138.236 154.659 139.277 145.025 143.443 137.864C144.614 135.781 146.046 134.089 147.608 132.656C155.678 125.366 168.955 125.366 181.841 125.235C191.864 125.235 202.407 125.105 210.347 121.59C218.417 118.075 225.576 110.263 232.345 102.842C240.935 93.4678 249.787 83.8334 260.46 82.6617C271.003 81.6201 281.677 89.1714 292.09 96.5925C300.42 102.581 309.141 108.701 317.992 110.654C326.323 112.476 336.476 110.393 346.238 108.44C358.994 105.836 372.141 103.232 381.773 108.831C391.405 114.429 395.7 127.058 399.866 139.427C402.99 148.801 406.374 158.565 412.101 164.945C418.219 171.715 427.851 176.142 437.093 180.438C448.677 185.776 460.652 191.244 464.948 201.009C469.373 210.773 465.468 223.402 461.694 235.51C458.7 245.145 455.576 255.17 456.487 264.023C457.398 272.746 462.605 281.86 467.681 290.583C474.059 301.78 480.697 313.367 478.485 324.043C478.094 326.256 477.313 328.339 476.012 330.422Z" stroke="#294652"/>
<g clip-path="url(#clip0_265_533)">
<path d="M459.318 189.564C461.049 197.599 459.006 207.066 456.929 217.085C454.755 227.191 452.56 237.663 454.506 246.726C456.366 255.69 462.474 264.542 468.519 272.929C474.379 281.305 479.992 289.205 481.626 297.326C482.131 299.662 482.183 301.878 481.964 303.986C480.762 314.795 470.828 323.603 461.272 332.25C453.773 338.899 445.97 345.991 442.361 353.889C438.655 361.873 438.48 372.467 438.339 382.511C438.13 395.224 437.899 408.305 430.69 416.263C423.492 424.037 410.495 425.467 397.781 426.823C387.574 427.868 376.989 429.075 369.071 433.486C361.628 437.648 355.413 445.943 349.404 453.88C341.587 464.291 333.477 474.961 322.556 477.162C311.537 479.45 299.859 472.752 288.634 466.175C279.991 461.136 271.067 456.172 262.55 455.198C253.481 454.191 243.337 457.268 233.571 460.185C221.362 463.876 208.774 467.729 199.082 463.272C189.292 458.902 183.836 446.862 178.628 435.297C174.476 426.102 170.163 416.529 163.608 410.509C157.139 404.586 147.197 401.221 137.612 398.062C125.411 393.915 112.757 389.649 107.33 380.192C106.24 378.375 105.54 376.211 105.035 373.876C103.303 365.841 105.347 356.373 107.423 346.354C109.597 336.249 111.793 325.776 109.846 316.714C107.986 307.749 101.878 298.897 95.8333 290.51C89.9728 282.134 84.3603 274.235 82.7265 266.113C82.221 263.777 82.1695 261.561 82.3882 259.453C83.5898 248.644 93.5241 239.836 103.08 231.19C110.579 224.541 118.382 217.449 121.991 209.551C125.697 201.567 125.872 190.972 126.013 180.929C126.222 168.215 126.454 155.135 133.663 147.177C140.861 139.403 153.857 137.972 166.572 136.617C176.778 135.572 187.363 134.365 195.282 129.954C202.724 125.791 208.939 117.497 214.948 109.559C222.765 99.1482 230.875 88.4782 241.796 86.2771C252.717 84.076 264.31 90.676 275.632 97.1674C284.188 102.109 293.198 107.17 301.716 108.144C310.785 109.151 320.929 106.074 330.694 103.157C342.904 99.4661 355.492 95.6132 365.184 100.07C374.973 104.44 380.43 116.48 385.638 128.045C389.79 137.24 394.103 146.813 400.658 152.833C407.127 158.756 417.069 162.121 426.654 165.28C438.855 169.427 451.509 173.693 456.936 183.15C458.112 185.065 458.91 187.142 459.318 189.564Z" stroke="#294652"/>
</g>
<g clip-path="url(#clip1_265_533)">
<path d="M445.746 167.232C448.511 174.972 447.72 184.626 446.968 194.83C446.131 205.132 445.32 215.802 448.432 224.533C451.446 233.179 458.657 241.158 465.743 248.685C472.646 256.225 479.241 263.325 481.921 271.163C482.727 273.413 483.067 275.604 483.125 277.722C483.344 288.596 474.643 298.625 466.297 308.444C459.729 316.014 452.918 324.064 450.37 332.365C447.737 340.764 448.946 351.291 450.116 361.267C451.567 373.899 453.044 386.898 446.935 395.728C440.812 404.375 428.114 407.488 415.684 410.491C405.701 412.859 395.364 415.436 388.089 420.842C381.253 425.94 376.173 434.974 371.251 443.628C364.858 454.97 358.21 466.606 347.669 470.213C337.043 473.918 324.591 468.802 312.604 463.744C303.378 459.876 293.882 456.118 285.31 456.264C276.188 456.448 266.532 460.823 257.23 464.988C245.607 470.241 233.629 475.703 223.438 472.548C213.162 469.492 206.182 458.267 199.51 447.481C194.194 438.906 188.669 429.977 181.384 424.863C174.198 419.835 163.902 417.796 153.987 415.914C141.35 413.394 128.247 410.815 121.633 402.147C120.315 400.487 119.339 398.434 118.533 396.184C115.768 388.443 116.559 378.79 117.311 368.586C118.148 358.284 118.959 347.614 115.847 338.883C112.834 330.237 105.622 322.258 98.5357 314.731C91.6326 307.191 85.0376 300.091 82.3583 292.252C81.5525 290.002 81.2123 287.812 81.1541 285.693C80.9355 274.82 89.6359 264.791 97.9822 254.972C104.55 247.401 111.361 239.352 113.909 231.051C116.542 222.652 115.333 212.125 114.163 202.149C112.712 189.517 111.235 176.518 117.344 167.688C123.467 159.041 136.165 155.927 148.595 152.925C158.578 150.557 168.915 147.98 176.19 142.574C183.026 137.476 188.106 128.442 193.028 119.788C199.421 108.446 206.069 96.8097 216.61 93.2027C227.151 89.5958 239.505 94.6272 251.577 99.5862C260.705 103.37 270.298 107.212 278.87 107.067C287.993 106.882 297.649 102.507 306.95 98.3422C318.574 93.0898 330.552 87.6278 340.743 90.7822C351.018 93.8382 357.999 105.064 364.671 115.85C369.987 124.425 375.512 133.354 382.796 138.467C389.982 143.495 400.278 145.535 410.194 147.417C422.831 149.937 435.934 152.516 442.548 161.183C443.964 162.929 445.026 164.884 445.746 167.232Z" stroke="#294652"/>
</g>
<g clip-path="url(#clip2_265_533)">
<path d="M430.122 147.676C433.832 155.011 434.254 164.687 434.783 174.905C435.24 185.231 435.769 195.919 439.948 204.193C444.018 212.394 452.17 219.409 460.142 225.992C467.933 232.609 475.363 238.83 479.001 246.272C480.082 248.404 480.693 250.535 481.016 252.629C482.592 263.39 475.213 274.428 468.159 285.213C462.589 293.545 456.837 302.382 455.346 310.937C453.784 319.599 456.299 329.892 458.706 339.644C461.725 351.995 464.815 364.708 459.857 374.233C454.863 383.577 442.653 388.253 430.696 392.785C421.087 396.382 411.153 400.231 404.611 406.504C398.465 412.416 394.554 422.014 390.752 431.215C385.827 443.267 380.685 455.643 370.678 460.539C360.598 465.543 347.604 462.023 335.079 458.503C325.442 455.818 315.551 453.277 307.065 454.492C298.036 455.815 289.003 461.363 280.295 466.658C269.419 473.321 258.217 480.237 247.713 478.381C237.135 476.633 228.807 466.368 220.839 456.501C214.494 448.657 207.896 440.489 200.029 436.326C192.271 432.235 181.801 431.498 171.728 430.87C158.875 429.949 145.553 429.028 137.907 421.255C136.393 419.773 135.167 417.857 134.087 415.726C130.376 408.391 129.954 398.715 129.425 388.497C128.968 378.171 128.439 367.483 124.261 359.21C120.19 351.008 112.038 343.993 104.067 337.411C96.2754 330.793 88.8448 324.572 85.2069 317.13C84.1262 314.998 83.5149 312.867 83.1925 310.773C81.6166 300.012 88.9956 288.974 96.0493 278.189C101.62 269.857 107.371 261.02 108.862 252.465C110.425 243.803 107.909 233.51 105.502 223.758C102.484 211.407 99.3936 198.694 104.352 189.169C109.345 179.826 121.555 175.149 133.512 170.617C143.121 167.02 153.055 163.171 159.598 156.898C165.743 150.986 169.654 141.388 173.456 132.187C178.381 120.135 183.523 107.759 193.53 102.863C203.538 97.9671 216.424 101.415 229.021 104.827C238.55 107.44 248.549 110.053 257.035 108.838C266.064 107.514 275.097 101.967 283.805 96.6722C294.681 90.0084 305.883 83.0923 316.387 84.9484C326.965 86.6963 335.293 96.9615 343.261 106.829C349.606 114.672 356.204 122.841 364.071 127.004C371.829 131.095 382.299 131.832 392.372 132.46C405.225 133.38 418.547 134.302 426.193 142.075C427.816 143.63 429.113 145.437 430.122 147.676Z" stroke="#294652"/>
</g>
<g clip-path="url(#clip3_265_533)">
<path d="M409.662 128.107C414.371 134.844 416.156 144.364 418.124 154.405C420.035 164.563 422.068 175.068 427.374 182.669C432.562 190.213 441.623 196.006 450.445 201.396C459.093 206.847 467.328 211.955 471.981 218.809C473.352 220.767 474.258 222.79 474.873 224.818C477.953 235.248 472.208 247.217 466.748 258.891C462.411 267.926 457.965 277.487 457.698 286.167C457.375 294.963 461.319 304.798 465.08 314.111C469.813 325.913 474.668 338.061 471.105 348.191C467.482 358.146 456.055 364.501 444.858 370.677C435.854 375.595 426.563 380.809 420.972 387.943C415.724 394.664 413.208 404.718 410.744 414.364C407.571 426.991 404.229 439.969 395.014 446.23C385.742 452.608 372.381 450.959 359.484 449.244C349.564 447.947 339.414 446.828 331.184 449.231C322.434 451.816 314.274 458.584 306.402 465.056C296.576 473.189 286.464 481.619 275.802 481.265C265.084 481.029 255.389 472.043 246.107 463.401C238.717 456.532 231.032 449.378 222.656 446.368C214.398 443.414 203.929 444.164 193.868 444.965C181.014 445.869 167.695 446.839 159.028 440.224C157.319 438.971 155.835 437.248 154.464 435.29C149.755 428.554 147.971 419.034 146.003 408.993C144.092 398.835 142.058 388.329 136.753 380.729C131.565 373.185 122.503 367.392 113.682 362.002C105.034 356.551 96.7988 351.443 92.146 344.589C90.775 342.631 89.8688 340.608 89.2537 338.58C86.1733 328.149 91.919 316.18 97.3783 304.507C101.716 295.472 106.161 285.91 106.428 277.231C106.752 268.434 102.808 258.6 99.0465 249.286C94.3136 237.485 89.4585 225.336 93.0213 215.207C96.645 205.251 108.072 198.897 119.268 192.721C128.272 187.803 137.563 182.589 143.154 175.455C148.402 168.734 150.918 158.679 153.382 149.033C156.555 136.407 159.897 123.428 169.113 117.168C178.328 110.907 191.572 112.5 204.525 114.098C214.328 115.338 224.595 116.513 232.825 114.111C241.576 111.525 249.735 104.758 257.607 98.2855C267.433 90.152 277.545 81.7228 288.207 82.0762C298.925 82.3123 308.62 91.2979 317.902 99.9408C325.292 106.809 332.978 113.964 341.353 116.974C349.611 119.927 360.081 119.178 370.141 118.376C382.996 117.472 396.314 116.502 404.981 123.117C406.808 124.427 408.348 126.033 409.662 128.107Z" stroke="#294652"/>
</g>
<path d="M215.12 277.92H210.08V277H221.18V277.92H216.14V291H215.12V277.92Z" fill="#1F3D4D"/>
<path d="M239.11 277V291H238.09V284.34H228.73V291H227.71V277H228.73V283.44H238.09V277H239.11Z" fill="#1F3D4D"/>
<path d="M257.659 290.08V291H247.999V277H257.359V277.92H249.019V283.44H256.479V284.34H249.019V290.08H257.659Z" fill="#1F3D4D"/>
<path d="M278.194 291.1C277.168 291.1 276.188 290.927 275.254 290.58C274.334 290.22 273.614 289.76 273.094 289.2L273.554 288.44C274.048 288.96 274.708 289.387 275.534 289.72C276.374 290.04 277.254 290.2 278.174 290.2C279.508 290.2 280.514 289.947 281.194 289.44C281.874 288.933 282.214 288.273 282.214 287.46C282.214 286.833 282.034 286.333 281.674 285.96C281.314 285.587 280.868 285.3 280.334 285.1C279.801 284.9 279.081 284.693 278.174 284.48C277.148 284.227 276.321 283.98 275.694 283.74C275.081 283.5 274.554 283.133 274.114 282.64C273.688 282.133 273.474 281.46 273.474 280.62C273.474 279.94 273.654 279.32 274.014 278.76C274.374 278.187 274.921 277.733 275.654 277.4C276.401 277.067 277.328 276.9 278.434 276.9C279.208 276.9 279.968 277.013 280.714 277.24C281.461 277.467 282.108 277.773 282.654 278.16L282.274 278.98C281.714 278.593 281.094 278.3 280.414 278.1C279.748 277.9 279.088 277.8 278.434 277.8C277.141 277.8 276.161 278.06 275.494 278.58C274.828 279.1 274.494 279.773 274.494 280.6C274.494 281.227 274.674 281.727 275.034 282.1C275.394 282.473 275.841 282.76 276.374 282.96C276.908 283.16 277.634 283.373 278.554 283.6C279.581 283.853 280.401 284.1 281.014 284.34C281.628 284.58 282.148 284.947 282.574 285.44C283.014 285.92 283.234 286.573 283.234 287.4C283.234 288.08 283.048 288.7 282.674 289.26C282.314 289.82 281.754 290.267 280.994 290.6C280.234 290.933 279.301 291.1 278.194 291.1Z" fill="#1F3D4D"/>
<path d="M293.186 277.92H288.146V277H299.246V277.92H294.206V291H293.186V277.92Z" fill="#1F3D4D"/>
<path d="M311.521 291.1C310.147 291.1 308.907 290.793 307.801 290.18C306.694 289.553 305.821 288.7 305.181 287.62C304.554 286.54 304.241 285.333 304.241 284C304.241 282.667 304.554 281.46 305.181 280.38C305.821 279.3 306.694 278.453 307.801 277.84C308.907 277.213 310.147 276.9 311.521 276.9C312.894 276.9 314.134 277.207 315.241 277.82C316.347 278.433 317.214 279.28 317.841 280.36C318.481 281.44 318.801 282.653 318.801 284C318.801 285.347 318.481 286.56 317.841 287.64C317.214 288.72 316.347 289.567 315.241 290.18C314.134 290.793 312.894 291.1 311.521 291.1ZM311.521 290.16C312.694 290.16 313.754 289.893 314.701 289.36C315.647 288.827 316.394 288.093 316.941 287.16C317.487 286.213 317.761 285.16 317.761 284C317.761 282.84 317.487 281.793 316.941 280.86C316.394 279.913 315.647 279.173 314.701 278.64C313.754 278.107 312.694 277.84 311.521 277.84C310.347 277.84 309.281 278.107 308.321 278.64C307.374 279.173 306.627 279.913 306.081 280.86C305.534 281.793 305.261 282.84 305.261 284C305.261 285.16 305.534 286.213 306.081 287.16C306.627 288.093 307.374 288.827 308.321 289.36C309.281 289.893 310.347 290.16 311.521 290.16Z" fill="#1F3D4D"/>
<path d="M336.059 291L332.719 286.32C332.225 286.387 331.772 286.42 331.359 286.42H327.359V291H326.339V277H331.359C333.119 277 334.499 277.42 335.499 278.26C336.499 279.087 336.999 280.24 336.999 281.72C336.999 282.827 336.712 283.76 336.139 284.52C335.579 285.267 334.772 285.793 333.719 286.1L337.219 291H336.059ZM331.359 285.52C332.852 285.52 333.992 285.193 334.779 284.54C335.565 283.873 335.959 282.933 335.959 281.72C335.959 280.507 335.565 279.573 334.779 278.92C333.992 278.253 332.852 277.92 331.359 277.92H327.359V285.52H331.359Z" fill="#1F3D4D"/>
<path d="M348.858 286.18V291H347.838V286.18L342.198 277H343.318L348.378 285.24L353.438 277H354.498L348.858 286.18Z" fill="#1F3D4D"/>
</g>
<defs>
<clipPath id="clip0_265_533">
<rect width="397" height="401" fill="white" transform="translate(0.524902 263.653) rotate(-41.5609)"/>
</clipPath>
<clipPath id="clip1_265_533">
<rect width="397" height="401" fill="white" transform="translate(0.538574 300.536) rotate(-49.0563)"/>
</clipPath>
<clipPath id="clip2_265_533">
<rect width="397" height="401" fill="white" transform="translate(5.06348 335.574) rotate(-56.2354)"/>
</clipPath>
<clipPath id="clip3_265_533">
<rect width="397" height="401" fill="white" transform="translate(15.4121 374.17) rotate(-64.3569)"/>
</clipPath>
</defs>
</svg>
