<svg width="429" height="930" viewBox="0 0 429 930" fill="none" xmlns="http://www.w3.org/2000/svg">
<path fill-rule="evenodd" clip-rule="evenodd" d="M418.045 465.539C422.007 465.764 425.674 465.753 429 465.539H418.045ZM416.799 465.539H418.045C417.829 465.527 417.612 465.514 417.394 465.5C417.612 465.486 417.829 465.473 418.045 465.461H429C425.674 465.247 422.008 465.236 418.045 465.461H416.799C360.406 461.619 246.791 410.891 199.677 226.17C175.359 130.828 129.921 -5.42249 0 0.166601L-2.03494e-05 465.539L0 930.833C129.921 936.422 175.359 800.172 199.677 704.83C246.791 520.109 360.406 469.381 416.799 465.539Z" fill="#1F3D4D"/>
</svg>
